<svg width="126" height="141" viewBox="0 0 126 141" fill="none" xmlns="http://www.w3.org/2000/svg">
<g opacity="0.3" filter="url(#filter0_f_1_16)">
<path fill-rule="evenodd" clip-rule="evenodd" d="M19.2166 104.387C20.7151 100.382 24.5424 97.7271 28.8189 97.7271H97.1815C104.336 97.7271 109.291 104.871 106.784 111.572C105.285 115.577 101.458 118.232 97.1815 118.232H60.952L52.1179 123L42.7145 118.232H28.8189C21.664 118.232 16.7095 111.088 19.2166 104.387Z" fill="#141B39"/>
</g>
<path fill-rule="evenodd" clip-rule="evenodd" d="M15 5C15 2.23858 17.2386 0 20 0L106 0C108.761 0 111 2.23858 111 5V83.2908C111 86.0522 108.761 88.2908 106 88.2908H80.7734C79.0102 88.2908 77.3774 89.2195 76.476 90.7349L68.2753 104.523C66.3683 107.73 61.7488 107.794 59.7533 104.642L50.8738 90.6163C49.9572 89.1684 48.3629 88.2908 46.6492 88.2908H20C17.2386 88.2908 15 86.0522 15 83.2908L15 5Z" fill="#427FE0"/>
<path d="M87.8123 15.1023C90.0054 15.1023 91.7996 16.8344 91.7996 18.9509C91.7996 19.528 91.7997 20.1053 91.6003 20.49L70.2673 74.1726C69.6691 75.904 68.0741 76.6736 66.4792 76.6736C64.8845 76.6735 63.2893 75.7116 62.6912 73.9802L59.1023 63.782C56.5104 56.2782 49.3336 49.3518 41.5583 46.658L30.991 43.1941C29.1969 42.6169 28.2001 41.0779 28.2 39.5388C28.2 37.9995 28.9974 36.4598 30.7917 35.8826L86.4167 15.2947C86.8154 15.1023 87.4135 15.1023 87.8123 15.1023ZM86.0183 23.7605C86.8155 21.8365 85.0207 19.9128 83.0271 20.6824C82.6316 20.6825 82.2363 20.8718 82.2302 20.8748L41.9568 35.8826C41.9568 35.8826 41.1589 36.2673 39.9626 36.6521C37.371 37.6143 37.3717 41.2702 40.1628 42.2322L42.156 42.8093L53.9187 46.658C56.5105 47.4276 58.3058 49.3511 59.1033 51.6599C59.1033 51.6599 60.2988 54.9311 61.2957 57.8171C62.8906 62.435 73.2583 56.2778 74.8533 51.6599C78.8407 42.0394 85.6199 24.7224 85.6199 24.7224L86.0183 23.7605Z" fill="white"/>
<defs>
<filter id="filter0_f_1_16" x="0.574543" y="79.7442" width="124.851" height="61.2387" filterUnits="userSpaceOnUse" color-interpolation-filters="sRGB">
<feFlood flood-opacity="0" result="BackgroundImageFix"/>
<feBlend mode="normal" in="SourceGraphic" in2="BackgroundImageFix" result="shape"/>
<feGaussianBlur stdDeviation="8.99142" result="effect1_foregroundBlur_1_16"/>
</filter>
</defs>
</svg>
